<svg id="レイヤー_1" data-name="レイヤー 1" xmlns="http://www.w3.org/2000/svg" width="25.0332" height="24.91504" viewBox="0 0 25.0332 24.91504">
  <defs>
    <style>
      .cls-1 {
        fill: #fff;
      }

      .cls-2 {
        fill: #717683;
      }

      .cls-3 {
        font-size: 13.39646px;
        fill: #3b76d3;
        font-family: YuKyo-Bold-83pv-RKSJ-H, YuKyokasho;
      }

      .cls-4 {
        fill: none;
      }
    </style>
  </defs>
  <g>
    <path class="cls-1" d="M2.97314,4H21.02686A1.97314,1.97314,0,0,1,23,5.97314V19.02637A1.97363,1.97363,0,0,1,21.02637,21H2.97363A1.97363,1.97363,0,0,1,1,19.02637V5.97314A1.97314,1.97314,0,0,1,2.97314,4Z"/>
    <path class="cls-2" d="M21.02682,5A.97429.97429,0,0,1,22,5.97318V19.02682A.97429.97429,0,0,1,21.02682,20H2.97318A.97429.97429,0,0,1,2,19.02682V5.97318A.97429.97429,0,0,1,2.97318,5H21.02682m0-2H2.97318A2.97318,2.97318,0,0,0,0,5.97318V19.02682A2.97318,2.97318,0,0,0,2.97318,22H21.02682A2.97318,2.97318,0,0,0,24,19.02682V5.97318A2.97318,2.97318,0,0,0,21.02682,3Z"/>
  </g>
  <text class="cls-3" transform="translate(7.25757 17.91138) scale(0.96593 1)">B</text>
  <path class="cls-1" d="M22.55837,24.915a1.277,1.277,0,0,1-1.04033-.5364L20.06562,22.3551l-.79509.92162-.62486.04591a1.25574,1.25574,0,0,1-.27436-.03023,1.291,1.291,0,0,1-.96418-.94962L15.4799,14.58345a1.26664,1.26664,0,0,1,.48152-1.336l.30348-.224L16.71843,13a1.2714,1.2714,0,0,1,.6943.20493l6.738,4.31136a1.27656,1.27656,0,0,1-.21388,2.25983l-.63607.25868,1.73238,2.41548-.056.5644a1.2657,1.2657,0,0,1-.51288.82756l-1.46251,1.04928Z"/>
  <path class="cls-2" d="M23.82416,22.731,21.51994,19.5193l1.99123-.80812a.12909.12909,0,0,0,.02113-.22843l-6.74446-4.31591a.1292.1292,0,0,0-.19515.1398l1.92952,7.77063a.12966.12966,0,0,0,.09549.09483.13111.13111,0,0,0,.128-.04176l1.40275-1.627,2.30435,3.2112a.12888.12888,0,0,0,.10507.05415.13024.13024,0,0,0,.07531-.02424l1.16125-.83318a.12972.12972,0,0,0,.05227-.08432A.12774.12774,0,0,0,23.82416,22.731Z"/>
  <rect class="cls-4" width="24" height="24"/>
</svg>